<?xml version="1.0" standalone="no"?>
<!DOCTYPE svg PUBLIC "-//W3C//DTD SVG 20010904//EN"
 "http://www.w3.org/TR/2001/REC-SVG-20010904/DTD/svg10.dtd">
<svg version="1.0" xmlns="http://www.w3.org/2000/svg"
 width="260.000000pt" height="260.000000pt" viewBox="0 0 260.000000 260.000000"
 preserveAspectRatio="xMidYMid meet">
<metadata>
Created by potrace 1.11, written by Peter Selinger 2001-2013
</metadata>
<g transform="translate(0.000000,260.000000) scale(0.100000,-0.100000)"
fill="#000000" stroke="none">
<path d="M125 2568 c-32 -17 -76 -61 -91 -90 -12 -23 -14 -207 -14 -1181 l0
-1153 27 -41 c14 -23 43 -51 63 -62 38 -21 39 -21 1190 -21 831 0 1157 3 1173
11 32 17 77 60 93 91 12 23 14 207 14 1178 0 832 -3 1157 -11 1173 -17 32 -60
77 -91 93 -23 12 -207 14 -1180 14 -821 -1 -1159 -4 -1173 -12z m820 -198 c92
-32 156 -92 181 -170 15 -48 18 -106 22 -458 3 -353 1 -414 -13 -480 -37 -164
-91 -216 -252 -241 -40 -6 -104 -12 -143 -12 l-70 -1 0 -404 0 -404 -185 0
-185 0 0 1101 0 1100 288 -3 c274 -3 290 -5 357 -28z m815 -312 c0 -188 2
-339 4 -337 3 2 37 153 77 334 39 182 75 333 79 338 3 4 83 6 177 5 l170 -3
-54 -235 c-29 -129 -80 -354 -113 -499 l-60 -263 75 -337 c42 -185 103 -452
136 -593 32 -142 59 -260 59 -263 0 -3 -93 -4 -207 -3 l-207 3 -61 355 c-34
195 -65 364 -67 375 -3 11 -6 -150 -7 -357 l-1 -378 -185 0 -185 0 0 1100 0
1100 185 0 185 0 0 -342z"/>
<path d="M670 1704 l0 -377 33 7 c17 3 42 17 55 32 22 25 22 28 22 330 0 331
-3 348 -55 372 -58 27 -55 45 -55 -364z"/>
</g>
</svg>
