<svg id="question_1_" data-name="question (1)" xmlns="http://www.w3.org/2000/svg" width="26.823" height="26.823" viewBox="0 0 26.823 26.823">
  <g id="Group_2112" data-name="Group 2112" transform="translate(0 0)">
    <g id="Group_2111" data-name="Group 2111" transform="translate(0 0)">
      <path id="Path_5638" data-name="Path 5638" d="M26.72,24.29l-1.841-5.359a13.1,13.1,0,1,0-11.759,7.3h.021a13.157,13.157,0,0,0,5.794-1.357l5.359,1.841a1.925,1.925,0,0,0,.626.105,1.913,1.913,0,0,0,1.8-2.533Zm-1.58.847a.307.307,0,0,1-.33.076l-5.679-1.951a.8.8,0,0,0-.63.049A11.522,11.522,0,1,1,23.314,18.5a.8.8,0,0,0-.049.63l1.951,5.679A.307.307,0,0,1,25.14,25.137Z" transform="translate(-0.003 0)" fill="#fff"/>
    </g>
  </g>
  <g id="Group_2114" data-name="Group 2114" transform="translate(12.192 19.004)">
    <g id="Group_2113" data-name="Group 2113">
      <path id="Path_5639" data-name="Path 5639" d="M233.515,362.748a.8.8,0,1,0,.8.8A.8.8,0,0,0,233.515,362.748Z" transform="translate(-232.719 -362.748)" fill="#fff"/>
    </g>
  </g>
  <g id="Group_2116" data-name="Group 2116" transform="translate(9.031 6.689)">
    <g id="Group_2115" data-name="Group 2115">
      <path id="Path_5640" data-name="Path 5640" d="M176.351,127.674a3.961,3.961,0,0,0-3.956,3.956.8.8,0,0,0,1.59,0A2.366,2.366,0,1,1,176.351,134a.8.8,0,0,0-.8.8v3.243a.8.8,0,1,0,1.59,0v-2.528a3.956,3.956,0,0,0-.8-7.832Z" transform="translate(-172.395 -127.674)" fill="#fff"/>
    </g>
  </g>
</svg>
