<svg id="school" xmlns="http://www.w3.org/2000/svg" width="27.286" height="27.286" viewBox="0 0 27.286 27.286">
  <g id="Group_2227" data-name="Group 2227" transform="translate(0 0)">
    <path id="Path_5689" data-name="Path 5689" d="M27.23,16.936,25.1,12.673a.533.533,0,0,0-.477-.295H22.153L14.773,5a1.588,1.588,0,0,0-.6-.377V3.464H16.84a.533.533,0,0,0,.447-.823l-.59-.909.59-.909A.533.533,0,0,0,16.84,0h-3.2a.533.533,0,0,0-.533.533V4.622a1.59,1.59,0,0,0-.6.377l-7.38,7.38H2.665a.533.533,0,0,0-.477.295L.056,16.936a.533.533,0,0,0,.477.771h.533v7.98a.533.533,0,0,0,.533.533H6.328v.533a.533.533,0,0,0,.533.533H20.425a.533.533,0,0,0,.533-.533V26.22h4.729a.533.533,0,0,0,.533-.533v-7.98h.533a.533.533,0,0,0,.477-.771ZM14.176,1.066h1.683l-.244.376a.533.533,0,0,0,0,.581l.244.376H14.176ZM25.891,16.641H20.958V15.248a1.62,1.62,0,0,0,.221.015,1.6,1.6,0,0,0,1.6-1.6,1.62,1.62,0,0,0-.015-.221h1.53Zm-22.9-3.2h1.53a1.62,1.62,0,0,0-.015.221,1.6,1.6,0,0,0,1.6,1.6,1.621,1.621,0,0,0,.221-.015v1.394H1.4Zm3.334,4.263v5.315h-4.2V17.707Zm-4.2,7.447V24.088h4.2v1.066Zm8.314,0h6.4V26.22h-6.4Zm1.332-5.329H13.11v4.263H11.778Zm3.731,4.263H14.176V19.825h1.332v4.263Zm2.4,2.132V25.154a1.067,1.067,0,0,0-1.066-1.066h-.267V19.825a1.067,1.067,0,0,0-1.066-1.066H11.778a1.067,1.067,0,0,0-1.066,1.066v4.263h-.267a1.067,1.067,0,0,0-1.066,1.066V26.22H7.394V14.639L8.933,13.1a.533.533,0,1,0-.754-.754l-1.7,1.7a.533.533,0,1,1-.753-.753l7.536-7.536a.533.533,0,0,1,.753,0l7.536,7.536a.533.533,0,0,1-.753.753L14.02,7.259a.533.533,0,0,0-.754,0l-1.7,1.7a.533.533,0,0,0,.754.754l1.319-1.319,6.249,6.249V26.22Zm7.248-1.066h-4.2V24.088h4.2Zm0-7.447v5.315h-4.2V17.707Z" transform="translate(0 0)" fill="#fff"/>
    <path id="Path_5690" data-name="Path 5690" d="M225.233,202.1a1.732,1.732,0,1,0-1.732-1.732A1.734,1.734,0,0,0,225.233,202.1Zm0-2.4a.666.666,0,1,1-.666.666A.667.667,0,0,1,225.233,199.706Z" transform="translate(-211.59 -188.054)" fill="#fff"/>
    <path id="Path_5691" data-name="Path 5691" d="M206.331,312.265h-4.8a.533.533,0,0,0,0,1.066h4.8a.533.533,0,0,0,0-1.066Z" transform="translate(-190.29 -295.624)" fill="#fff"/>
    <path id="Path_5692" data-name="Path 5692" d="M182.9,196.913h0a.533.533,0,1,0,.533.533A.533.533,0,0,0,182.9,196.913Z" transform="translate(-172.646 -186.419)" fill="#fff"/>
  </g>
</svg>
