<svg xmlns="http://www.w3.org/2000/svg" width="32.42" height="27.997" viewBox="0 0 32.42 27.997">
  <g id="Line" transform="translate(-2 -5.003)">
    <path id="Path_5668" data-name="Path 5668" d="M32.737,25.947a.737.737,0,0,0,.737-.737V23.737a.737.737,0,1,0-1.474,0V25.21A.737.737,0,0,0,32.737,25.947Z" transform="translate(-7.895 -4.736)" fill="#fff"/>
    <path id="Path_5669" data-name="Path 5669" d="M32.737,31.947a.737.737,0,0,0,.737-.737V29.737a.737.737,0,1,0-1.474,0V31.21A.737.737,0,0,0,32.737,31.947Z" transform="translate(-7.895 -6.316)" fill="#fff"/>
    <path id="Path_5670" data-name="Path 5670" d="M32.737,37.947a.737.737,0,0,0,.737-.737V35.737a.737.737,0,0,0-1.474,0V37.21A.737.737,0,0,0,32.737,37.947Z" transform="translate(-7.895 -7.895)" fill="#fff"/>
    <path id="Path_5671" data-name="Path 5671" d="M33.683,15.316H33.2L8.3,5.06a.737.737,0,0,0-.965.4l-1.96,4.767a.693.693,0,0,0,0,.567.737.737,0,0,0,.4.4l1.385.56a2.21,2.21,0,0,1,1.2,2.888,2.262,2.262,0,0,1-.464.678H2.737A.737.737,0,0,0,2,16.053v5.158a.737.737,0,0,0,.737.737H4.21a2.21,2.21,0,1,1,0,4.421H2.737A.737.737,0,0,0,2,27.105v5.158A.737.737,0,0,0,2.737,33H33.683a.737.737,0,0,0,.737-.737V27.105a.737.737,0,0,0-.737-.737H32.21a2.21,2.21,0,1,1,0-4.421h1.474a.737.737,0,0,0,.737-.737V16.053A.737.737,0,0,0,33.683,15.316ZM7.7,10.387l-.678-.28,1.4-3.4,20.911,8.613H9.641c0-.044.044-.081.059-.118a3.684,3.684,0,0,0-2-4.811ZM32.947,20.474H32.21a3.684,3.684,0,1,0,0,7.368h.737v3.684H3.474V27.842H4.21a3.684,3.684,0,1,0,0-7.368H3.474V16.79H32.947Z" fill="#fff"/>
    <path id="Path_5672" data-name="Path 5672" d="M14.737,26.474h8.842a.737.737,0,1,0,0-1.474H14.737a.737.737,0,1,0,0,1.474Z" transform="translate(-3.158 -5.263)" fill="#fff"/>
    <path id="Path_5673" data-name="Path 5673" d="M14.737,36.474h8.842a.737.737,0,1,0,0-1.474H14.737a.737.737,0,0,0,0,1.474Z" transform="translate(-3.158 -7.895)" fill="#fff"/>
    <path id="Path_5674" data-name="Path 5674" d="M14.737,31.474h8.842a.737.737,0,1,0,0-1.474H14.737a.737.737,0,0,0,0,1.474Z" transform="translate(-3.158 -6.579)" fill="#fff"/>
  </g>
</svg>
