<svg xmlns="http://www.w3.org/2000/svg" width="38.186" height="22.972" viewBox="0 0 38.186 22.972">
  <path id="mortarboard_2_" data-name="mortarboard (2)" d="M37.852,8.336,19.324.051a.563.563,0,0,0-.461,0L11.351,3.41a.565.565,0,0,0,.461,1.031l7.281-3.256,6.665,2.98V8.327a23.162,23.162,0,0,0-6.65-1.4h-.031a23.338,23.338,0,0,0-7.428,1.7,19.254,19.254,0,0,0-4.19,2.331.565.565,0,0,0-.2.269L1.949,8.852,9.4,5.521A.565.565,0,0,0,8.936,4.49L.334,8.336a.565.565,0,0,0,0,1.031l6.9,3.084v2.705a.565.565,0,1,0,1.13,0V12.1h0v-.4a18.276,18.276,0,0,1,3.716-2.026,22.717,22.717,0,0,1,7.017-1.613,22.6,22.6,0,0,1,6.665,1.473v5.613a2,2,0,0,0-.2,3.759l-.4,1.04a21.108,21.108,0,0,0-6.074,1.819C15.741,20,10.128,19.507,8.36,19.39V17.805a.565.565,0,1,0-1.13,0v2.118a.565.565,0,0,0,.54.564c.074,0,7.415.346,11.043,2.412a.565.565,0,0,0,.559,0A18.1,18.1,0,0,1,24.7,21.178l-.334.879a.565.565,0,0,0,.528.766h2.862a.565.565,0,0,0,.528-.766l-.511-1.344c1.537-.176,2.631-.225,2.643-.226a.565.565,0,0,0,.54-.564V17.805a.565.565,0,1,0-1.13,0v1.585c-.527.036-1.4.106-2.468.234l-.273-.719a2,2,0,0,0-.2-3.759V10.013A17.9,17.9,0,0,1,29.826,11.7v.4h0v3.059a.565.565,0,1,0,1.13,0V12.451l6.9-3.084a.565.565,0,0,0,0-1.031ZM25.711,21.694l.612-1.611.612,1.611Zm1.478-4.632a.866.866,0,1,1-.866-.866A.867.867,0,0,1,27.19,17.062Zm3.734-5.834a.565.565,0,0,0-.2-.269,19.085,19.085,0,0,0-3.839-2.182V4.671l9.349,4.18Zm0,0" transform="translate(0 -0.002)" fill="#fff"/>
</svg>
