<svg xmlns="http://www.w3.org/2000/svg" width="28" height="28" viewBox="0 0 28 28">
  <g id="Group_2230" data-name="Group 2230" transform="translate(1165 -485)">
    <g id="Ellipse_2" data-name="Ellipse 2" transform="translate(-1165 485)" fill="none" stroke="#fff" stroke-width="1">
      <circle cx="14" cy="14" r="14" stroke="none"/>
      <circle cx="14" cy="14" r="13.5" fill="none"/>
    </g>
    <path id="Path_5637" data-name="Path 5637" d="M875.871,355.644h1.061s.217-.021.043.236-4.827,7.033-4.827,7.033a.881.881,0,0,0-.157.5,1.02,1.02,0,0,0,.167.528l3.293,4.882s.131.149-.081.149h-1.825a.983.983,0,0,1-.673-.218c-.214-.239-2.27-3.157-2.27-3.157s-.073-.133-.357-.133a.46.46,0,0,0-.377.129l-4.443,6.522a.942.942,0,0,1-.655.347l-2.1,0s-.135.012,0-.2,5.763-8.5,5.763-8.5a.648.648,0,0,0,.063-.332c0-.224-.063-.271-.063-.271l-3.393-5.084s-.153-.188,0-.188h1.9a1.113,1.113,0,0,1,.84.363c.3.381,2.123,3.041,2.123,3.041a.452.452,0,0,0,.338.126.506.506,0,0,0,.353-.129l3.571-5.168s.273-.473.669-.473Z" transform="translate(-2020.932 135.092)" fill="none" stroke="#fff" stroke-width="1"/>
  </g>
</svg>
