<svg xmlns="http://www.w3.org/2000/svg" width="34.857" height="21.967" viewBox="0 0 34.857 21.967">
  <g id="Group_2174" data-name="Group 2174" transform="translate(430.108 -497)">
    <path id="Path_5656" data-name="Path 5656" d="M219.07,31.109V29.257a4.268,4.268,0,1,0-8.535,0v1.853a4.268,4.268,0,1,0,8.535,0Zm-7.411,0V29.257a3.143,3.143,0,1,1,6.286,0v1.853a3.143,3.143,0,1,1-6.286,0Z" transform="translate(-627.474 472.011)" fill="#fff"/>
    <path id="Path_5657" data-name="Path 5657" d="M80.557,149.992H94.315a.562.562,0,0,0,.562-.562v-1.29h9.418a.562.562,0,0,0,.562-.562v-3.649a4.214,4.214,0,0,0-3.946-4.2.656.656,0,0,0-.579.32,2.58,2.58,0,0,1-4.071-.1.562.562,0,0,0-.466-.228,4.168,4.168,0,0,0-2.068.6,4.726,4.726,0,0,0-3.3-1.636.684.684,0,0,0-.58.337,3.027,3.027,0,0,1-4.777-.117.561.561,0,0,0-.466-.228,4.705,4.705,0,0,0-3.265,1.424c-.071.073-.138.148-.2.224a4.18,4.18,0,0,0-1.917-.6.657.657,0,0,0-.579.32,2.58,2.58,0,0,1-4.071-.1.564.564,0,0,0-.466-.228A4.212,4.212,0,0,0,70,143.928v3.649a.562.562,0,0,0,.562.562H80v1.29A.562.562,0,0,0,80.557,149.992Zm15-9.132a3.705,3.705,0,0,0,5.547.015,3.091,3.091,0,0,1,2.63,3.053v3.087H94.877v-3.607a4.7,4.7,0,0,0-.52-2.153A3.039,3.039,0,0,1,95.556,140.86ZM84.365,139.82a4.152,4.152,0,0,0,6.272.015,3.611,3.611,0,0,1,3.117,3.574v5.459H81.119v-5.459A3.632,3.632,0,0,1,84.365,139.82Zm-13.24,7.2v-3.087a3.109,3.109,0,0,1,2.741-3.068,3.7,3.7,0,0,0,5.546.014,3.067,3.067,0,0,1,1.1.387A4.711,4.711,0,0,0,80,143.408v3.607Z" transform="translate(-500.108 368.975)" fill="#fff"/>
    <path id="Path_5658" data-name="Path 5658" d="M338.741,55.687V54.065a3.805,3.805,0,1,0-7.611,0v1.622a3.805,3.805,0,1,0,7.611,0Zm-6.486,0V54.065a2.681,2.681,0,1,1,5.362,0v1.622a2.681,2.681,0,1,1-5.362,0Z" transform="translate(-736.77 449.108)" fill="#fff"/>
    <path id="Path_5659" data-name="Path 5659" d="M107.257,55.687V54.065a3.805,3.805,0,1,0-7.611,0v1.622a3.805,3.805,0,0,0,7.611,0Zm-6.486,0V54.065a2.681,2.681,0,0,1,5.362,0v1.622a2.681,2.681,0,0,1-5.362,0Z" transform="translate(-526.976 449.108)" fill="#fff"/>
  </g>
</svg>
