<svg id="stats" xmlns="http://www.w3.org/2000/svg" width="26.915" height="26.915" viewBox="0 0 26.915 26.915">
  <g id="Group_2063" data-name="Group 2063" transform="translate(0 0)">
    <path id="Path_5517" data-name="Path 5517" d="M32.365,31.514H8.3V7.451a.951.951,0,1,0-1.9,0V32.465a.94.94,0,0,0,.951.951H32.365a.95.95,0,1,0,0-1.9Z" transform="translate(-6.4 -6.5)" fill="#fff"/>
    <path id="Path_5518" data-name="Path 5518" d="M48,50.128V36.451a.95.95,0,1,0-1.9,0V50.128a.95.95,0,1,0,1.9,0Z" transform="translate(-36.896 -28.777)" fill="#fff"/>
    <path id="Path_5519" data-name="Path 5519" d="M28.2,50.128V36.451a.95.95,0,1,0-1.9,0V50.128a.95.95,0,1,0,1.9,0Z" transform="translate(-21.687 -28.777)" fill="#fff"/>
    <path id="Path_5520" data-name="Path 5520" d="M87.6,50.128V36.451a.95.95,0,1,0-1.9,0V50.128a.95.95,0,1,0,1.9,0Z" transform="translate(-67.316 -28.777)" fill="#fff"/>
    <path id="Path_5521" data-name="Path 5521" d="M107.4,72.789V65.951a.95.95,0,1,0-1.9,0v6.839a.95.95,0,1,0,1.9,0Z" transform="translate(-82.526 -51.438)" fill="#fff"/>
    <path id="Path_5522" data-name="Path 5522" d="M67.8,72.789V65.951a.951.951,0,1,0-1.9,0v6.839a.951.951,0,1,0,1.9,0Z" transform="translate(-52.106 -51.438)" fill="#fff"/>
  </g>
</svg>
