<?xml version="1.0" encoding="utf-8"?>
<!-- Generator: Adobe Illustrator 22.1.0, SVG Export Plug-In . SVG Version: 6.00 Build 0)  -->
<svg version="1.1" id="Layer_1" xmlns="http://www.w3.org/2000/svg" xmlns:xlink="http://www.w3.org/1999/xlink" x="0px" y="0px"
	 viewBox="0 0 512 512" style="enable-background:new 0 0 512 512;" xml:space="preserve">
<style type="text/css">
	.st0{fill:#FA8072;}
</style>
<path class="st0" d="M479.3,357.2L304,256l175.3-101.2c5.7-3.3,7.7-10.7,4.4-16.4l-12-20.8c-3.3-5.7-10.7-7.7-16.4-4.4L280,214.4V12
	c0-6.6-5.4-12-12-12h-24c-6.6,0-12,5.4-12,12v202.4L56.7,113.2c-5.7-3.3-13.1-1.3-16.4,4.4l-12,20.8c-3.3,5.7-1.3,13.1,4.4,16.4
	L208,256L32.7,357.2c-5.7,3.3-7.7,10.7-4.4,16.4l12,20.8c3.3,5.7,10.7,7.7,16.4,4.4L232,297.6V500c0,6.6,5.4,12,12,12h24
	c6.6,0,12-5.4,12-12V297.6l175.3,101.2c5.7,3.3,13.1,1.3,16.4-4.4l12-20.8C487,367.9,485,360.5,479.3,357.2z"/>
</svg>
