
<svg xmlns="http://www.w3.org/2000/svg" xmlns:xlink="http://www.w3.org/1999/xlink" width="112.404" height="65.199" viewBox="0 0 112.404 65.199">
  <defs>
    <linearGradient id="linear-gradient" x1="-0.122" y1="1.203" x2="1.177" y2="-0.277" gradientUnits="objectBoundingBox">
      <stop offset="0" stop-color="#7b4ddd"/>
      <stop offset="0.075" stop-color="#734ada"/>
      <stop offset="0.186" stop-color="#5f44d2"/>
      <stop offset="0.302" stop-color="#433bc8"/>
      <stop offset="0.37" stop-color="#3f3ac6"/>
      <stop offset="0.554" stop-color="#3b39c5"/>
      <stop offset="0.626" stop-color="#3c42ca"/>
      <stop offset="0.747" stop-color="#415dd9"/>
      <stop offset="0.901" stop-color="#4987f2"/>
      <stop offset="0.941" stop-color="#4c94f9"/>
    </linearGradient>
  </defs>
  <g id="Group_2267" data-name="Group 2267" transform="translate(-26.05 -19)">
    <circle id="Ellipse_2" data-name="Ellipse 2" cx="14.5" cy="14.5" r="14.5" transform="translate(70 19)" fill="#fff"/>
    <path id="Path_5637" data-name="Path 5637" d="M877.965,355.644h1.229s.252-.025.05.273-5.589,8.143-5.589,8.143a1.02,1.02,0,0,0-.182.574,1.181,1.181,0,0,0,.194.612l3.813,5.653s.151.172-.094.172h-2.113a1.139,1.139,0,0,1-.779-.253c-.248-.276-2.628-3.656-2.628-3.656s-.085-.154-.413-.154a.533.533,0,0,0-.437.149l-5.145,7.552a1.091,1.091,0,0,1-.758.4l-2.437,0s-.156.014,0-.229,6.673-9.837,6.673-9.837a.75.75,0,0,0,.073-.385c0-.26-.073-.314-.073-.314l-3.929-5.887s-.177-.217,0-.217h2.206a1.289,1.289,0,0,1,.973.42c.345.442,2.458,3.521,2.458,3.521a.523.523,0,0,0,.392.146.586.586,0,0,0,.409-.149l4.135-5.984s.317-.548.775-.548Z" transform="translate(-786.878 -331.424)" fill="url(#linear-gradient)"/>
    <g id="Group_2254" data-name="Group 2254" transform="translate(538 -362.071)">
      <g id="Group_2154" data-name="Group 2154" transform="translate(-511.95 422.801)">
        <path id="Path_5661" data-name="Path 5661" d="M151.516,203.421a4.684,4.684,0,0,0,1.537.3h1.1a6.2,6.2,0,0,0-6.329-5.043c-5.509,0-6.964,4.4-6.964,7.92,0,2.948,1.407,6.12,4.738,7.064a8.525,8.525,0,0,0,4.124-.107,5.733,5.733,0,0,0,3.27-2.346,6.236,6.236,0,0,0,1.105-2.549h-1.5a3.331,3.331,0,0,0-2.572,1.389,3.528,3.528,0,0,1-2.042.835,3.859,3.859,0,0,1-2.448-.479c-1.037-.659-1.881-1.9-1.881-4.108,0-3.9,2.6-4.776,4.234-4.776a4.045,4.045,0,0,1,2.362.85A3.956,3.956,0,0,0,151.516,203.421Z" transform="translate(-140.865 -195.555)" fill="#fff"/>
        <path id="Path_5662" data-name="Path 5662" d="M242.124,213.584s-.016.156-.156.156h-1.535a.98.98,0,0,1-.8-.336c-.426-.41-.345-.739-.345-.739v-8.845a5.2,5.2,0,0,1,5.974-5.153,4.8,4.8,0,0,1,2.757.722,5.8,5.8,0,0,1,.886.64c.2.181.279.246.279.246a8.833,8.833,0,0,1,.722-.624,6.492,6.492,0,0,1,7.008-.033,5.131,5.131,0,0,1,2.2,3.988v9.978s.058.161-.221.161H257.42a1.048,1.048,0,0,1-.624-.243,1.174,1.174,0,0,1-.517-1.075v-8.4a3.277,3.277,0,0,0-.82-1.838,3.189,3.189,0,0,0-3.75-.172,2.6,2.6,0,0,0-1.059,1.994v9.5s.016.235-.2.235h-1.461a1.127,1.127,0,0,1-.615-.186c-.328-.205-.615-.509-.615-1.444v-8.337a2.548,2.548,0,0,0-.936-1.666,3.19,3.19,0,0,0-3.725-.041,2.571,2.571,0,0,0-.96,1.838Z" transform="translate(-208.646 -195.488)" fill="#fff"/>
        <path id="Path_5663" data-name="Path 5663" d="M368.989,213.628a3.784,3.784,0,0,0-.908-.492,5.769,5.769,0,0,1-2.5.915,5.639,5.639,0,0,1-4.349-.952,5.13,5.13,0,0,1-2.2-3.988v-9.978s-.057-.161.222-.161h1.469a1.049,1.049,0,0,1,.624.243,1.175,1.175,0,0,1,.517,1.075v8.4a3.277,3.277,0,0,0,.82,1.838,3.189,3.189,0,0,0,3.75.172,2.594,2.594,0,0,0,1.058-1.994v-9.5s-.016-.235.2-.235h1.461a1.128,1.128,0,0,1,.615.186c.328.205.615.509.615,1.444v8.337l.047,5.105A2.162,2.162,0,0,1,368.989,213.628Z" transform="translate(-291.125 -195.757)" fill="#fff"/>
        <path id="Path_5664" data-name="Path 5664" d="M308.892,219.023h1.324a1.063,1.063,0,0,0,.857-.377,2.04,2.04,0,0,0,.237-1.171c.012-.369.011-5.045.011-5.045a4.773,4.773,0,0,0,1.543,1,7.888,7.888,0,0,0,6.357-.306c1.455-.755,3.392-2.746,3.392-6.936s-2-5.591-2.954-6.368a6.529,6.529,0,0,0-4.01-1.138,7.3,7.3,0,0,0-3.354.81,7.472,7.472,0,0,0-.755.514,1.093,1.093,0,0,0-.339-.81,1.385,1.385,0,0,0-1-.383h-1.346s-.175-.033-.175.2v19.809S308.717,219.023,308.892,219.023Zm6.619-17.468c.394,0,4.311,0,4.311,4.759s-4.07,4.792-4.07,4.792h-.164c-.529,0-4-.361-4-4.776S315.117,201.555,315.511,201.555Z" transform="translate(-256.448 -195.554)" fill="#fff"/>
        <path id="Path_5665" data-name="Path 5665" d="M202.3,198.94h-1.149a1.14,1.14,0,0,0-.8.438,3.25,3.25,0,0,0-.481.82,4.769,4.769,0,0,0-1.543-1,7.892,7.892,0,0,0-6.357.306c-1.455.755-3.392,2.746-3.392,6.937s2,5.591,2.954,6.367a6.53,6.53,0,0,0,4.01,1.138,7.3,7.3,0,0,0,3.353-.81,7.459,7.459,0,0,0,.755-.514,1.092,1.092,0,0,0,.339.81,1.387,1.387,0,0,0,1,.383h1.346s.175.033.175-.2V199.148S202.475,198.94,202.3,198.94Zm-6.619,12.133c-.394,0-4.311,0-4.311-4.759s4.07-4.792,4.07-4.792h.164c.529,0,4,.361,4,4.776S196.075,211.073,195.681,211.073Z" transform="translate(-173.728 -195.554)" fill="#fff"/>
        <path id="Path_5666" data-name="Path 5666" d="M410.7,202.68a4.1,4.1,0,0,1-1.418-.713,4.508,4.508,0,0,0-2.63-.874c-2.232,0-2.112,1.794-1.477,2.254a8.948,8.948,0,0,0,2.954,1.258c1.652.492,3.95,1.652,3.95,4.322s-1.98,4.774-5.525,4.774a5.252,5.252,0,0,1-4.581-2.044,10.563,10.563,0,0,1-1.013-2.8,7.9,7.9,0,0,1,1.5.421,8.015,8.015,0,0,1,1.735,1.133,3.768,3.768,0,0,0,2.349.571c1.783,0,2.265-.963,2.265-1.773s-.733-1.342-2.177-1.814-2.943-.8-4.158-2.1a4.124,4.124,0,0,1-.514-4.4,4.909,4.909,0,0,1,4.393-2.549,6.05,6.05,0,0,1,4.765,1.887,3.974,3.974,0,0,1,.838,2.649A4.754,4.754,0,0,1,410.7,202.68Z" transform="translate(-320.003 -195.323)" fill="#fff"/>
        <path id="Path_5667" data-name="Path 5667" d="M455.873,188.645h1.478s.3-.03.059.328-6.721,9.794-6.721,9.794a1.225,1.225,0,0,0-.219.69,1.42,1.42,0,0,0,.233.736l4.586,6.8s.182.207-.114.207h-2.542a1.369,1.369,0,0,1-.937-.3c-.3-.332-3.161-4.4-3.161-4.4s-.1-.185-.5-.185a.641.641,0,0,0-.525.179l-6.188,9.082a1.311,1.311,0,0,1-.912.483c-.534,0-2.93-.006-2.93-.006s-.187.017,0-.275,8.025-11.831,8.025-11.831a.9.9,0,0,0,.088-.463c-.006-.312-.088-.378-.088-.378l-4.725-7.08s-.213-.261,0-.261h2.652a1.55,1.55,0,0,1,1.17.505c.415.531,2.956,4.234,2.956,4.234a.629.629,0,0,0,.471.176.705.705,0,0,0,.492-.179l4.973-7.2s.38-.659.931-.659Z" transform="translate(-345.101 -188.644)" fill="#d5d5e2"/>
      </g>
    </g>
  </g>
</svg>
