<svg id="Layer_1" data-name="Layer 1" xmlns="http://www.w3.org/2000/svg" viewBox="0 0 85.8731 55.0781"><defs><style>.cls-1{fill:#d7e4ec;}.cls-2{fill:#94c93d;}.cls-3{fill:#131827;}.cls-4{fill:#e7f6fd;}.cls-5{fill:#52ad55;}.cls-6{fill:#9ed9dc;}.cls-7{fill:#068d8c;}.cls-8{fill:#ffca2a;}</style></defs><title>credit-cards</title><path class="cls-1" d="M3.0821,0h58.376a2.2011,2.2011,0,0,1,2.2011,2.2011V36.9688A2.2011,2.2011,0,0,1,61.4581,39.17H3.0826A2.2017,2.2017,0,0,1,.8809,36.9682V2.2012A2.2012,2.2012,0,0,1,3.0821,0Z"/><path class="cls-2" d="M2.2011,0H60.5772a2.2011,2.2011,0,0,1,2.2011,2.2011V36.9687A2.2012,2.2012,0,0,1,60.5771,39.17H2.2017A2.2017,2.2017,0,0,1,0,36.9682V2.2011A2.2011,2.2011,0,0,1,2.2011,0Z"/><rect class="cls-3" y="3.3906" width="62.7783" height="8.1495"/><rect class="cls-4" x="4.0899" y="14.3877" width="38.7441" height="6.043"/><rect class="cls-5" x="45.4844" y="14.3877" width="13.8496" height="6.043"/><rect class="cls-5" x="28.458" y="23.4404" width="30.876" height="2.3389"/><rect class="cls-5" x="28.458" y="27.4033" width="30.876" height="2.0918"/><rect class="cls-5" x="28.458" y="30.9258" width="21.4317" height="2.0908"/><rect class="cls-5" x="4.0899" y="35.1719" width="55.2441" height="2.1269"/><path class="cls-4" d="M6.291,23.044H15.09a2.2021,2.2021,0,0,1,2.2021,2.2021V29.543A2.2021,2.2021,0,0,1,15.09,31.7451H6.2911A2.2012,2.2012,0,0,1,4.09,29.5439V25.2451A2.2011,2.2011,0,0,1,6.291,23.044Z"/><path class="cls-1" d="M25.2969,15.9092H83.672A2.2011,2.2011,0,0,1,85.8731,18.11V52.8769a2.2012,2.2012,0,0,1-2.2012,2.2012H25.2969a2.2012,2.2012,0,0,1-2.2012-2.2012V18.11A2.2012,2.2012,0,0,1,25.2969,15.9092Z"/><path class="cls-6" d="M24.4151,15.9092h58.376A2.2011,2.2011,0,0,1,84.9922,18.11V52.876A2.2021,2.2021,0,0,1,82.79,55.0781H24.4151a2.2012,2.2012,0,0,1-2.2012-2.2012V18.11A2.2012,2.2012,0,0,1,24.4151,15.9092Z"/><rect class="cls-4" x="26.3047" y="30.2959" width="12.5498" height="6.042"/><rect class="cls-4" x="40.5361" y="30.2959" width="12.5498" height="6.042"/><rect class="cls-4" x="54.7666" y="30.2959" width="12.5508" height="6.042"/><rect class="cls-4" x="68.999" y="30.2959" width="12.5489" height="6.042"/><rect class="cls-7" x="53.2969" y="20.1533" width="28.251" height="6.044"/><rect class="cls-7" x="26.3047" y="46.834" width="30.876" height="2.0908"/><rect class="cls-7" x="26.3047" y="50.3555" width="21.4307" height="2.0918"/><path class="cls-8" d="M28.5069,19.1387h8.7978A2.2012,2.2012,0,0,1,39.5059,21.34v4.2988A2.2012,2.2012,0,0,1,37.3047,27.84H28.5059a2.2012,2.2012,0,0,1-2.2012-2.2012V21.3409A2.2022,2.2022,0,0,1,28.5069,19.1387Z"/><rect class="cls-4" x="67.9922" y="43.9824" width="13.5557" height="8.1612"/><rect class="cls-4" x="26.3047" y="39.9209" width="4.5352" height="4.5361"/><rect class="cls-4" x="35.1094" y="39.9209" width="4.5371" height="4.5361"/><polygon class="cls-4" points="31.58 45.707 31.158 45.58 33.224 38.671 33.645 38.798 31.58 45.707"/></svg>