<?xml version="1.0" encoding="utf-8"?>
<!-- Generator: Adobe Illustrator 23.0.1, SVG Export Plug-In . SVG Version: 6.00 Build 0)  -->
<svg version="1.1" id="Layer_1" xmlns="http://www.w3.org/2000/svg" xmlns:xlink="http://www.w3.org/1999/xlink" x="0px" y="0px"
	 viewBox="0 0 647.3 344" style="enable-background:new 0 0 647.3 344;" xml:space="preserve">
<style type="text/css">
	.st0{fill-rule:evenodd;clip-rule:evenodd;fill:#00B9E6;}
	.st1{fill-rule:evenodd;clip-rule:evenodd;fill:#1F406A;}
</style>
<title>Asset 1</title>
<g>
	<g id="Layer_1-2">
		<path class="st0" d="M404.3,181.6v81.9h-40.6v-239h40.5V99h0.6c5.5-24.8,11-49.7,16.5-74.6h38.2c-2.5,10.8-4.9,21.5-7.4,32.2
			c-3.9,17.4-7.9,34.7-11.8,52.1c-1.8,7.8-3.8,15.6-5.4,23.4c-0.4,1.9,0.3,4.1,0.7,6c5.5,24.3,11,48.6,16.5,72.9
			c2.8,12.3,5.8,24.6,8.6,36.9c1.2,5.1,2.2,10.3,3.4,15.7h-45c-4.8-27.4-9.5-54.8-14.3-82.1L404.3,181.6z"/>
		<path class="st1" d="M241.5,263.6H201c-2.3-21.3-4.5-42.5-6.8-64.2c-5.2,0-10.5-0.1-15.9,0.1c-0.6,0-1.6,1.1-1.6,1.7
			c-0.6,4.9-1,9.7-1.5,14.6c-0.9,7.9-1.8,15.8-2.7,23.7c-0.5,5-1,10-1.4,15c-0.3,2.9-0.6,5.9-0.9,9.1h-40.8
			c10-79.6,20.1-159.3,30.1-239.1c0.9-0.1,1.9-0.2,2.9-0.2c15.2,0,30.4,0,45.7-0.1c2.7,0,3.6,0.6,3.9,3.6c0.8,8.3,2.2,16.6,3.3,24.9
			s1.8,16.7,2.9,25c1,8,2.3,15.9,3.3,23.9c0.8,6.1,1.4,12.2,2.2,18.3c0.9,6.9,1.8,13.7,2.7,20.6c0.8,6.2,1.4,12.4,2.2,18.6
			c1.1,8.3,2.3,16.6,3.3,24.9c0.8,6.2,1.4,12.4,2.2,18.6c1.1,8.3,2.2,16.6,3.3,24.9c0.8,6.2,1.4,12.4,2.2,18.6
			c0.6,4.9,1.4,9.9,2,14.8C241.6,261.8,241.6,262.7,241.5,263.6z M190.9,165.3c-1.7-20.8-3.4-41.5-5.1-62.2
			c-1.4,9.5-2.2,18.9-3,28.3c-0.7,8.8-1.4,17.7-2.1,26.5c-0.2,2.5,0,4.9,0,7.4H190.9z"/>
		<path class="st1" d="M32.8,24.2C51,24.2,69,23.9,87,24.4c7.5,0.3,14.8,2.1,21.6,5.3c9.3,4.1,13.5,11.9,15.2,21.1
			c1,6.1,1.5,12.2,1.4,18.4c0.2,23.1,0.3,46.2-0.1,69.2c-0.1,6.3-1.8,12.8-3.8,18.8c-3.3,10.1-11.5,14.8-21.4,16.5
			c-6.1,1.1-12.4,1.6-18.6,2.1c-2.7,0.2-5.5,0.1-8.6,0.1v87.7H32.8V24.2z M72.9,140.2c5.9,1.7,12.3-3.6,12.3-9.5c0-20.5,0-41,0-61.5
			c-0.2-5.8-5-10.3-10.7-10.2c-0.5,0-1,0.1-1.5,0.2L72.9,140.2z"/>
		<path class="st0" d="M569,109.9h-36.7V106c0-14.3-0.2-28.6,0.1-42.9c0.2-9.3,2.3-18.1,7.9-25.9c6-8.4,14.4-12.6,24.2-14.4
			c4.8-1,9.7-1.4,14.6-1.3c8.3,0.4,16.6,1.3,24.3,5.2c7.4,3.8,11.8,9.7,14.7,17c3.3,8.7,5.2,17.8,5.6,27.1
			c0.4,7.2,1.1,14.3,1.3,21.5c0.4,12.7-2.6,24.6-7.5,36.3c-11,26.4-21.4,53.1-32,79.7c-3.2,7.9-6.4,15.8-9.8,24.2h49.1v30.9h-92.4
			c-0.1-0.9-0.2-1.9-0.2-2.9c0-6.1,0.3-12.2-0.1-18.3c-0.6-8,1.5-15.1,4.6-22.4c7.8-18,15.2-36.2,22.7-54.3
			c6.5-15.5,13.3-30.9,19.3-46.5c3.6-9.3,5-19.2,5.4-29.3c0.2-5.7,0.6-11.4,0.6-17.2c0-2.4-0.4-4.7-1.1-7c-1.4-5-4.1-6.8-8.7-6.1
			c-3.4,0.5-6.1,4.1-6.1,8.3c0,12.7,0,25.4,0,38.1L569,109.9z"/>
		<path class="st1" d="M318.4,263.6h-40.8v-4c0-27.1-0.1-54.2,0.1-81.3c0.1-9.8-1.6-19.2-3.8-28.6c-5.3-22.2-10.9-44.4-16.2-66.7
			c-3.2-13.3-6.2-26.6-9.3-39.8c-1.5-6.2-3-12.5-4.5-19c12.5,0,24.9,0,37.2,0.1c1.1,0.2,2.1,0.9,2.6,1.9c2.5,11.1,4.7,22.3,7.1,33.4
			s4.8,22.5,7.2,33.8c0.9,4.2,1.8,8.4,2.9,13.5c1.1-4,2.1-7.2,2.9-10.4c2-8.2,3.8-16.5,5.8-24.7c3.6-14.9,7.3-29.8,11-44.6
			c0.3-1.1,1.6-2.8,2.5-2.8c11.5-0.2,23-0.1,35.2-0.1c-1.3,4.8-2.5,9.2-3.7,13.6c-4.4,16.3-8.8,32.6-13.3,48.9
			c-4.1,14.9-8.3,29.7-12.4,44.6c-3.5,12.7-6.9,25.4-10.3,38.1c-0.2,1.1-0.2,2.3-0.1,3.4c0,28.8,0,57.7,0,86.5L318.4,263.6z"/>
		<path class="st0" d="M484,88.5h-15.1V52.7c9.3-0.1,13.4-6.7,16.8-13.5c2.2-4.5,3.1-9.6,4.8-14.8h34.2v239H484V88.5z"/>
		<path class="st1" d="M528.5,271.5h10v14.7c5-0.4,9.9-0.9,14.7-1c5.5-0.2,9.7,2.6,11,6.8c1.6,5.5-0.1,10.4-4.8,13.6
			c-1.3,0.9-2.6,1.8-4,2.9l11.2,14.1c-4.3,0-7.7,0.1-11.2,0c-0.9-0.1-1.7-0.5-2.2-1.1c-2.4-3.1-4.8-6.3-7-9.6
			c-0.7-1.3-1.2-2.6-1.4-4c-0.5-2.4,0.5-3.9,3-4.4c0.8-0.2,1.5-0.5,2.2-0.8c3.5-1.5,5.2-4,4.4-6.4s-5.2-3.8-8-3.2
			c-7.9,1.9-7.9,1.9-7.9,10v19.5h-10.1V271.5z"/>
		<path class="st1" d="M346.1,322.5h-9.4v-50.9h9.3v14.8c5.1-0.4,9.9-1,14.7-1.1c5.9-0.2,9.6,2.5,11.2,7.4c1.6,5.1-0.3,10.1-5,13.3
			c-1.3,0.9-2.6,1.6-3.9,2.5l11.5,14.2c-4.5,0-8.3,0.3-12-0.1c-1.2-0.1-2.3-1.9-3.2-3.1c-1.7-2.2-3.4-4.5-5-6.9
			c-0.7-1-1.8-2-1.9-3.1c-0.2-2.4-1.2-5.5,3.1-5.7c1,0,2-1,3-1.5c2.6-1.2,4.1-3.1,3.3-6s-3.7-3.5-6-3.2c-2.9,0.4-5.7,1.2-8.4,2.5
			c-0.7,0.3-1.3,1.9-1.3,3C346.1,306.3,346.1,314.2,346.1,322.5z"/>
		<path class="st1" d="M480.3,299.8c-0.3-5.4-3.9-7.9-9.5-6.9l-10.9,2v-8.2c8-1.9,16.1-2.7,24.2,0.1c3.6,1.2,6,4.6,5.9,8.4
			c0.2,9,0.1,17.9,0.1,28l-10.1-2.6c-3.4,2.4-8.9,2.7-14.3,1.8c-7.1-1.3-9.5-5.7-8.8-14.1c0.4-4.6,5.1-8.3,11.1-8.5
			C472,299.7,476.1,299.8,480.3,299.8z M474.6,306.7L474.6,306.7c-1.4,0-3-0.5-4.1,0.1c-1.5,0.8-3.4,2.2-3.7,3.7
			c-0.2,1.3,1.3,4,2.4,4.2c3.3,0.7,7,1,9.7-1.6c1.1-1,1.3-3.2,1.2-4.9c0-0.5-2-1.1-3.2-1.5C476.2,306.6,475.4,306.6,474.6,306.7z"/>
		<path class="st1" d="M600,314.3v7.6c-6.7,0-13.3,0.5-19.8-0.1c-6.2-0.7-10.3-4.6-12-10.9c-1.3-4.9-1.3-10-0.1-14.9
			c1.4-5.4,4.7-9.1,10.2-10.1c9.4-1.6,16.2-1.4,21,5.3c3.4,4.7,3,10.3,2.7,16.1h-24.5c0.1,4,3.5,7.1,7.5,7
			C590,314.4,594.9,314.3,600,314.3z M592.4,300.3c0.1-4-3-7.3-7-7.5c-0.2,0-0.4,0-0.6,0c-4.1,0.1-6.9,3-7.2,7.5H592.4z"/>
		<path class="st1" d="M385.3,307.1c1,5.1,3.1,7,8,7.1c4.7,0.1,9.3,0,14.2,0v7.6c-6.3,0-12.8,0.8-18.9-0.2
			c-9.4-1.5-12-5.9-13.2-14.6c-0.6-4.5-0.6-9.3,1.6-13.7c2-4.1,5-7.1,9.3-7.7c5.8-0.8,11.8-1.6,17.2,1.8c4.4,2.8,5.9,6.9,6.2,11.7
			c0.2,2.5,0,5.1,0,7.9L385.3,307.1z M385.3,300.2H400c-0.1-4.8-2.3-7.1-6.7-7.4C389.1,292.5,386.1,295.3,385.3,300.2L385.3,300.2z"
			/>
		<path class="st0" d="M232.5,325c0.9-0.6,1.7-1.1,2.4-1.7c2.2-1.7,3.2-3.6,1.9-6.5c-2.3-5.2-4.2-10.6-6.2-15.9
			c-0.4-1-0.9-2.1-1.3-3l-4.4,5.8c3.8,2,5.1,4.8,4.2,9.6c-0.7,3.7-3.6,6.3-7.8,6.4c-5,0.2-10.1,0-15.4,0v-31.3
			c6.2,0.3,12.5,0.3,18.7,1.1c3.5,0.5,4.3,4,4.7,7.1c0.2,0.1,0.4,0.2,0.7,0.2c6,0.2,6,0.2,7.9,5.8c0.5,1.5,1.1,3,1.6,4.5l1.8,5
			c1.3-3.8,2.4-7.2,3.7-10.5c2-5.4,0.7-5.1,7.9-4.5c-1.5,4-2.9,7.9-4.6,11.8c-2.1,4.9-4.3,9.8-6.6,14.6c-0.5,0.9-1.1,1.7-1.9,2.4
			C236.1,329.7,235.6,329.6,232.5,325z M215.5,302.5c1.8-0.7,3.7-1,4.8-2.1s1.5-3.1,1.8-4.8c0-0.3-2.1-1.2-3.3-1.4
			c-2.5-0.2-4.9-0.1-7.4-0.1v20.2c2.6,0,5.1,0,7.5,0c2.2,0,3.9-0.9,4-3.2c0.1-2.2-0.8-4-3.3-4.5c-1.3-0.3-2.6-0.6-4-0.9L215.5,302.5
			z"/>
		<path class="st1" d="M524.6,313.8v7.9c-7.9,1-15.9,2.6-23.1-2.6c-2.3-1.7-4.8-4.4-5.4-7.1c-1.1-4.8-1.4-9.7-0.8-14.6
			c1-6.8,5.9-11,12.6-11.9c5.5-0.8,11.1-0.1,16.7-0.1v8.1c-4.1,0-8-0.4-11.8,0.1c-5.9,0.7-9.3,6.2-7.9,12c1.5,6.3,4.8,9.5,11.1,8.8
			C518.7,314,521.6,314,524.6,313.8z"/>
		<path class="st1" d="M332.2,286.1v7.3c-3.9,0-7.7-0.4-11.4,0.1c-7,0.9-7.5,4.2-8.4,9.3s3.1,10.9,7.5,11.3c3.2,0.3,6.6-0.3,9.9-0.4
			c0.7,0,1.3,0,2.2,0v7.9c-6,1.6-12.3,1.6-18.3-0.1c-6.5-2-10.2-7-11-13.6s-1.1-13.7,5-18.5c2.3-1.8,4.9-3.1,7.8-3.7
			C321.1,284.6,326.7,284.7,332.2,286.1z"/>
		<path class="st1" d="M265.8,279.2c7.2-0.5,7.2-0.5,9.3,6h9.1v7.6h-8c0,6.5-0.1,12.5,0.1,18.6c0,1,1.8,2.4,3,2.8
			c1.4,0.5,3.1,0.1,4.9,0.1v8.2c-4.1,0-8.4,0.5-12.5-0.1s-5.9-4.2-5.9-8C265.7,302.7,265.8,291,265.8,279.2z"/>
		<path class="st1" d="M432.5,314.3v8.3c-4,0-8.1,0.2-12-0.1c-3.4-0.3-6.3-3.6-6.4-8c-0.2-11.7-0.1-23.5-0.1-35.1
			c7-0.9,7-0.9,9.5,5.9h9v7.4h-8.1c0,6.7-0.1,13,0.1,19.3c0,0.8,1.7,2,2.8,2.3C428.8,314.6,430.5,314.3,432.5,314.3z"/>
		<path class="st1" d="M436.4,285.3h7.6c0.4,1,0.9,2,1.2,2.9l10-3.8v9c-0.8,0.1-1.6,0.1-2.5,0.2c-4,0.5-6.2,3-6.2,7v21.9h-10.1
			V285.3z"/>
		<path class="st1" d="M625.6,284.3v8.9c-0.7,0.1-1.4,0.2-2.1,0.3c-5,0.9-6.7,3-6.7,8v20.9h-10.2v-36.7c6.3-1.6,8.2-0.9,9,2.7
			L625.6,284.3z"/>
		<path class="st0" d="M87.1,310.4c1.2-3.5,2.5-7.1,3.6-10.7c0.6-1.9,1.3-2.9,3.5-2.8c2,0.1,3,0.5,3.7,2.6c1.2,3.9,2.8,7.7,4.4,12
			c0.9-5.1,1.6-9.7,2.4-14.4h6.4c-2,7.6-4,15-5.9,22.5h-5.7c-1.6-4.8-3.2-9.5-5.1-15.1c-1.4,4-2.6,7.2-3.7,10.5
			c-1.6,4.8-1.6,4.8-7.3,4.6c-1.8-7.3-3.7-14.8-5.7-22.6c1.3,0,2.5,0.1,3.6,0c2.1-0.2,3,0.5,3.3,2.8c0.4,3.6,1.3,7.1,2,10.7
			L87.1,310.4z"/>
		<path class="st0" d="M186.3,297.4V289h6.1v14.4c0,4.3,0.1,8.5-0.1,12.8c0,0.9-0.9,2.3-1.6,2.4c-3.9,0.5-8,1.2-11.9,0.7
			c-6-0.9-8.7-6.3-7.8-13.6c0.7-5.6,4.2-8.5,10.1-8.6C182.8,297,184.4,297.2,186.3,297.4z M186.3,313.9c0-3.1,0.1-6,0-8.8
			c0-0.9-0.3-1.7-0.9-2.4c-2.8-2.1-7.4-0.2-8.2,3.3C175.9,312.2,179.2,315.2,186.3,313.9L186.3,313.9z"/>
		<path class="st0" d="M40.5,309.4c-0.5-2.3-0.8-3.8-1-5.2c2.1-1,4.4-1.6,5.8-3c1.1-1.4,1.7-3.3,1.5-5.1c-0.1-0.8-2.5-1.6-3.9-1.8
			c-2.3-0.2-4.5-0.2-6.8-0.1v25.3h-5.9v-30.4c5.6,0,11.2-0.2,16.7,0.1c3.2,0.1,5.8,2.4,6.2,5.5c0.8,4.5,0.2,8.9-4.2,11.5
			C46.4,307.6,43.5,308.3,40.5,309.4z"/>
		<path class="st1" d="M288.2,285.4h10v37h-10V285.4z"/>
		<path class="st0" d="M169,310.9h-14.8c1.1,3.4,3.6,3.9,6.1,4s5-0.4,7.7-0.6v4.5c-4.3,1.5-9,1.5-13.4-0.1
			c-5.1-1.7-7.4-7.1-6.2-13.8c0.9-5.1,4.2-7.6,9.6-8C166.2,296.3,170.7,301.4,169,310.9z M163.3,305.9c0-3.2-2.1-4-4.5-4.1
			c-2.6-0.1-4.2,1.2-4.3,4.1H163.3z"/>
		<path class="st0" d="M132.6,310.7h-15.1c3.6,6.2,9,3.8,13.8,3.6v4.5c-4.3,1.5-9,1.5-13.3,0c-4.5-1.5-7.2-7.1-6.4-12.4
			c1-6.4,3.9-9.2,9.8-9.3C130.1,296.8,133.6,300.9,132.6,310.7z M118,305.9h8.7c0.1-2.7-1.3-3.9-3.6-4.1
			C120.1,301.5,118.3,302.8,118,305.9z"/>
		<path class="st0" d="M76.8,308.5c0,7.7-3.6,11.3-11.3,11.3c-7.5,0-11.5-3.9-11.4-11.4c0-7.1,3.9-11.8,11.7-11.4
			S76.8,300.4,76.8,308.5z M70.7,308.4c0-4.7-1.6-6.7-5.3-6.7c-3.3,0-5.1,2.4-5.2,6.6s2,6.6,5.3,6.6S70.7,312.7,70.7,308.4
			L70.7,308.4z"/>
		<path class="st0" d="M147.1,301.4c-5.4,2-5.4,2-5.4,7.8c0,3.1,0,6.2-0.1,9.3c-0.1,0.3-0.2,0.6-0.4,0.9h-5.4v-22.8l5.8,1.8
			l-0.3,0.7l5.7-2.4V301.4z"/>
		<path class="st1" d="M288.1,279.5v-7.9h10v7.9H288.1z"/>
	</g>
</g>
</svg>
