<svg id="Layer_1" data-name="Layer 1" xmlns="http://www.w3.org/2000/svg" viewBox="0 0 595.4 307.1261"><defs><style>.cls-1{fill:#fff;fill-rule:evenodd;}</style></defs><title>logo-payk12-white</title><g id="Layer_1-2" data-name="Layer 1-2"><path class="cls-1" d="M404.3,181.6v81.9H363.7V24.5h40.5V99h.6q8.25-37.2,16.5-74.6h38.2c-2.5,10.8-4.9,21.5-7.4,32.2-3.9,17.4-7.9,34.7-11.8,52.1-1.8,7.8-3.8,15.6-5.4,23.4-.4,1.9.3,4.1.7,6L452.1,211c2.8,12.3,5.8,24.6,8.6,36.9,1.2,5.1,2.2,10.3,3.4,15.7h-45c-4.8-27.4-9.5-54.8-14.3-82.1Z" transform="translate(-30.2 -21.4851)"/><path class="cls-1" d="M241.5,263.6H201c-2.3-21.3-4.5-42.5-6.8-64.2-5.2,0-10.5-.1-15.9.1a2.3008,2.3008,0,0,0-1.6,1.7c-.6,4.9-1,9.7-1.5,14.6l-2.7,23.7c-.5,5-1,10-1.4,15-.3,2.9-.6,5.9-.9,9.1H129.4q15-119.4,30.1-239.1a26.4169,26.4169,0,0,1,2.9-.2c15.2,0,30.4,0,45.7-.1,2.7,0,3.6.6,3.9,3.6.8,8.3,2.2,16.6,3.3,24.9s1.8,16.7,2.9,25c1,8,2.3,15.9,3.3,23.9.8,6.1,1.4,12.2,2.2,18.3.9,6.9,1.8,13.7,2.7,20.6.8,6.2,1.4,12.4,2.2,18.6,1.1,8.3,2.3,16.6,3.3,24.9.8,6.2,1.4,12.4,2.2,18.6l3.3,24.9c.8,6.2,1.4,12.4,2.2,18.6.6,4.9,1.4,9.9,2,14.8A24.3687,24.3687,0,0,1,241.5,263.6Zm-50.6-98.3q-2.55-31.2-5.1-62.2c-1.4,9.5-2.2,18.9-3,28.3-.7,8.8-1.4,17.7-2.1,26.5-.2,2.5,0,4.9,0,7.4Z" transform="translate(-30.2 -21.4851)"/><path class="cls-1" d="M32.8,24.2c18.2,0,36.2-.3,54.2.2a55.8288,55.8288,0,0,1,21.6,5.3c9.3,4.1,13.5,11.9,15.2,21.1a102.9823,102.9823,0,0,1,1.4,18.4c.2,23.1.3,46.2-.1,69.2-.1,6.3-1.8,12.8-3.8,18.8-3.3,10.1-11.5,14.8-21.4,16.5-6.1,1.1-12.4,1.6-18.6,2.1-2.7.2-5.5.1-8.6.1v87.7H32.8Zm40.1,116c5.9,1.7,12.3-3.6,12.3-9.5V69.2A10.5436,10.5436,0,0,0,74.5,59a7.7191,7.7191,0,0,0-1.5.2Z" transform="translate(-30.2 -21.4851)"/><path class="cls-1" d="M569,109.9H532.3V106c0-14.3-.2-28.6.1-42.9.2-9.3,2.3-18.1,7.9-25.9,6-8.4,14.4-12.6,24.2-14.4a65.0459,65.0459,0,0,1,14.6-1.3c8.3.4,16.6,1.3,24.3,5.2,7.4,3.8,11.8,9.7,14.7,17a86.7493,86.7493,0,0,1,5.6,27.1c.4,7.2,1.1,14.3,1.3,21.5.4,12.7-2.6,24.6-7.5,36.3-11,26.4-21.4,53.1-32,79.7-3.2,7.9-6.4,15.8-9.8,24.2h49.1v30.9H532.4a26.4169,26.4169,0,0,1-.2-2.9c0-6.1.3-12.2-.1-18.3-.6-8,1.5-15.1,4.6-22.4,7.8-18,15.2-36.2,22.7-54.3,6.5-15.5,13.3-30.9,19.3-46.5,3.6-9.3,5-19.2,5.4-29.3.2-5.7.6-11.4.6-17.2a23.8041,23.8041,0,0,0-1.1-7c-1.4-5-4.1-6.8-8.7-6.1-3.4.5-6.1,4.1-6.1,8.3v38.1Z" transform="translate(-30.2 -21.4851)"/><path class="cls-1" d="M318.4,263.6H277.6v-4c0-27.1-.1-54.2.1-81.3.1-9.8-1.6-19.2-3.8-28.6-5.3-22.2-10.9-44.4-16.2-66.7-3.2-13.3-6.2-26.6-9.3-39.8-1.5-6.2-3-12.5-4.5-19,12.5,0,24.9,0,37.2.1a3.6444,3.6444,0,0,1,2.6,1.9c2.5,11.1,4.7,22.3,7.1,33.4s4.8,22.5,7.2,33.8c.9,4.2,1.8,8.4,2.9,13.5,1.1-4,2.1-7.2,2.9-10.4,2-8.2,3.8-16.5,5.8-24.7,3.6-14.9,7.3-29.8,11-44.6.3-1.1,1.6-2.8,2.5-2.8,11.5-.2,23-.1,35.2-.1-1.3,4.8-2.5,9.2-3.7,13.6Q348,62.35,341.3,86.8c-4.1,14.9-8.3,29.7-12.4,44.6-3.5,12.7-6.9,25.4-10.3,38.1a12.9173,12.9173,0,0,0-.1,3.4v86.5Z" transform="translate(-30.2 -21.4851)"/><path class="cls-1" d="M484,88.5H468.9V52.7c9.3-.1,13.4-6.7,16.8-13.5,2.2-4.5,3.1-9.6,4.8-14.8h34.2v239H484Z" transform="translate(-30.2 -21.4851)"/><path class="cls-1" d="M528.5,271.5h10v14.7c5-.4,9.9-.9,14.7-1,5.5-.2,9.7,2.6,11,6.8,1.6,5.5-.1,10.4-4.8,13.6-1.3.9-2.6,1.8-4,2.9l11.2,14.1c-4.3,0-7.7.1-11.2,0a3.3334,3.3334,0,0,1-2.2-1.1c-2.4-3.1-4.8-6.3-7-9.6a11.9485,11.9485,0,0,1-1.4-4c-.5-2.4.5-3.9,3-4.4a14.2725,14.2725,0,0,0,2.2-.8c3.5-1.5,5.2-4,4.4-6.4s-5.2-3.8-8-3.2c-7.9,1.9-7.9,1.9-7.9,10v19.5H528.4V271.5Z" transform="translate(-30.2 -21.4851)"/><path class="cls-1" d="M346.1,322.5h-9.4V271.6H346v14.8c5.1-.4,9.9-1,14.7-1.1,5.9-.2,9.6,2.5,11.2,7.4,1.6,5.1-.3,10.1-5,13.3-1.3.9-2.6,1.6-3.9,2.5l11.5,14.2c-4.5,0-8.3.3-12-.1-1.2-.1-2.3-1.9-3.2-3.1-1.7-2.2-3.4-4.5-5-6.9-.7-1-1.8-2-1.9-3.1-.2-2.4-1.2-5.5,3.1-5.7,1,0,2-1,3-1.5,2.6-1.2,4.1-3.1,3.3-6s-3.7-3.5-6-3.2a28.0145,28.0145,0,0,0-8.4,2.5c-.7.3-1.3,1.9-1.3,3Z" transform="translate(-30.2 -21.4851)"/><path class="cls-1" d="M480.3,299.8c-.3-5.4-3.9-7.9-9.5-6.9l-10.9,2v-8.2c8-1.9,16.1-2.7,24.2.1a8.6148,8.6148,0,0,1,5.9,8.4c.2,9,.1,17.9.1,28L480,320.6c-3.4,2.4-8.9,2.7-14.3,1.8-7.1-1.3-9.5-5.7-8.8-14.1.4-4.6,5.1-8.3,11.1-8.5C472,299.7,476.1,299.8,480.3,299.8Zm-5.7,6.9h0c-1.4,0-3-.5-4.1.1-1.5.8-3.4,2.2-3.7,3.7-.2,1.3,1.3,4,2.4,4.2,3.3.7,7,1,9.7-1.6,1.1-1,1.3-3.2,1.2-4.9,0-.5-2-1.1-3.2-1.5A8.8449,8.8449,0,0,0,474.6,306.7Z" transform="translate(-30.2 -21.4851)"/><path class="cls-1" d="M600,314.3v7.6c-6.7,0-13.3.5-19.8-.1-6.2-.7-10.3-4.6-12-10.9a30.0721,30.0721,0,0,1-.1-14.9c1.4-5.4,4.7-9.1,10.2-10.1,9.4-1.6,16.2-1.4,21,5.3,3.4,4.7,3,10.3,2.7,16.1H577.5a7.2611,7.2611,0,0,0,7.5,7C590,314.4,594.9,314.3,600,314.3Zm-7.6-14a7.3241,7.3241,0,0,0-7-7.5h-.6c-4.1.1-6.9,3-7.2,7.5Z" transform="translate(-30.2 -21.4851)"/><path class="cls-1" d="M385.3,307.1c1,5.1,3.1,7,8,7.1,4.7.1,9.3,0,14.2,0v7.6c-6.3,0-12.8.8-18.9-.2-9.4-1.5-12-5.9-13.2-14.6-.6-4.5-.6-9.3,1.6-13.7,2-4.1,5-7.1,9.3-7.7,5.8-.8,11.8-1.6,17.2,1.8,4.4,2.8,5.9,6.9,6.2,11.7.2,2.5,0,5.1,0,7.9Zm0-6.9H400c-.1-4.8-2.3-7.1-6.7-7.4-4.2-.3-7.2,2.5-8,7.4Z" transform="translate(-30.2 -21.4851)"/><path class="cls-1" d="M232.5,325a24.92,24.92,0,0,0,2.4-1.7c2.2-1.7,3.2-3.6,1.9-6.5-2.3-5.2-4.2-10.6-6.2-15.9-.4-1-.9-2.1-1.3-3l-4.4,5.8c3.8,2,5.1,4.8,4.2,9.6a7.7154,7.7154,0,0,1-7.8,6.4c-5,.2-10.1,0-15.4,0V288.4c6.2.3,12.5.3,18.7,1.1,3.5.5,4.3,4,4.7,7.1a1.4453,1.4453,0,0,0,.7.2c6,.2,6,.2,7.9,5.8.5,1.5,1.1,3,1.6,4.5l1.8,5c1.3-3.8,2.4-7.2,3.7-10.5,2-5.4.7-5.1,7.9-4.5-1.5,4-2.9,7.9-4.6,11.8-2.1,4.9-4.3,9.8-6.6,14.6a8.7584,8.7584,0,0,1-1.9,2.4C236.1,329.7,235.6,329.6,232.5,325Zm-17-22.5c1.8-.7,3.7-1,4.8-2.1s1.5-3.1,1.8-4.8c0-.3-2.1-1.2-3.3-1.4-2.5-.2-4.9-.1-7.4-.1v20.2h7.5c2.2,0,3.9-.9,4-3.2.1-2.2-.8-4-3.3-4.5-1.3-.3-2.6-.6-4-.9Z" transform="translate(-30.2 -21.4851)"/><path class="cls-1" d="M524.6,313.8v7.9c-7.9,1-15.9,2.6-23.1-2.6-2.3-1.7-4.8-4.4-5.4-7.1a42.1689,42.1689,0,0,1-.8-14.6c1-6.8,5.9-11,12.6-11.9,5.5-.8,11.1-.1,16.7-.1v8.1c-4.1,0-8-.4-11.8.1-5.9.7-9.3,6.2-7.9,12,1.5,6.3,4.8,9.5,11.1,8.8C518.7,314,521.6,314,524.6,313.8Z" transform="translate(-30.2 -21.4851)"/><path class="cls-1" d="M332.2,286.1v7.3c-3.9,0-7.7-.4-11.4.1-7,.9-7.5,4.2-8.4,9.3s3.1,10.9,7.5,11.3c3.2.3,6.6-.3,9.9-.4H332v7.9a34.4475,34.4475,0,0,1-18.3-.1c-6.5-2-10.2-7-11-13.6s-1.1-13.7,5-18.5a18.7725,18.7725,0,0,1,7.8-3.7A37.6507,37.6507,0,0,1,332.2,286.1Z" transform="translate(-30.2 -21.4851)"/><path class="cls-1" d="M265.8,279.2c7.2-.5,7.2-.5,9.3,6h9.1v7.6h-8c0,6.5-.1,12.5.1,18.6,0,1,1.8,2.4,3,2.8,1.4.5,3.1.1,4.9.1v8.2c-4.1,0-8.4.5-12.5-.1s-5.9-4.2-5.9-8C265.7,302.7,265.8,291,265.8,279.2Z" transform="translate(-30.2 -21.4851)"/><path class="cls-1" d="M432.5,314.3v8.3c-4,0-8.1.2-12-.1-3.4-.3-6.3-3.6-6.4-8-.2-11.7-.1-23.5-.1-35.1,7-.9,7-.9,9.5,5.9h9v7.4h-8.1c0,6.7-.1,13,.1,19.3,0,.8,1.7,2,2.8,2.3A29.9341,29.9341,0,0,0,432.5,314.3Z" transform="translate(-30.2 -21.4851)"/><path class="cls-1" d="M436.4,285.3H444c.4,1,.9,2,1.2,2.9l10-3.8v9c-.8.1-1.6.1-2.5.2-4,.5-6.2,3-6.2,7v21.9H436.4Z" transform="translate(-30.2 -21.4851)"/><path class="cls-1" d="M625.6,284.3v8.9l-2.1.3c-5,.9-6.7,3-6.7,8v20.9H606.6V285.7c6.3-1.6,8.2-.9,9,2.7Z" transform="translate(-30.2 -21.4851)"/><path class="cls-1" d="M87.1,310.4c1.2-3.5,2.5-7.1,3.6-10.7.6-1.9,1.3-2.9,3.5-2.8,2,.1,3,.5,3.7,2.6,1.2,3.9,2.8,7.7,4.4,12,.9-5.1,1.6-9.7,2.4-14.4h6.4c-2,7.6-4,15-5.9,22.5H99.5c-1.6-4.8-3.2-9.5-5.1-15.1-1.4,4-2.6,7.2-3.7,10.5-1.6,4.8-1.6,4.8-7.3,4.6-1.8-7.3-3.7-14.8-5.7-22.6,1.3,0,2.5.1,3.6,0,2.1-.2,3,.5,3.3,2.8.4,3.6,1.3,7.1,2,10.7Z" transform="translate(-30.2 -21.4851)"/><path class="cls-1" d="M186.3,297.4V289h6.1v14.4c0,4.3.1,8.5-.1,12.8,0,.9-.9,2.3-1.6,2.4-3.9.5-8,1.2-11.9.7-6-.9-8.7-6.3-7.8-13.6.7-5.6,4.2-8.5,10.1-8.6A31.4258,31.4258,0,0,1,186.3,297.4Zm0,16.5c0-3.1.1-6,0-8.8a3.5834,3.5834,0,0,0-.9-2.4c-2.8-2.1-7.4-.2-8.2,3.3-1.3,6.2,2,9.2,9.1,7.9Z" transform="translate(-30.2 -21.4851)"/><path class="cls-1" d="M40.5,309.4c-.5-2.3-.8-3.8-1-5.2,2.1-1,4.4-1.6,5.8-3a7.1812,7.1812,0,0,0,1.5-5.1c-.1-.8-2.5-1.6-3.9-1.8a51.4507,51.4507,0,0,0-6.8-.1v25.3H30.2V289.1c5.6,0,11.2-.2,16.7.1a6.35,6.35,0,0,1,6.2,5.5c.8,4.5.2,8.9-4.2,11.5C46.4,307.6,43.5,308.3,40.5,309.4Z" transform="translate(-30.2 -21.4851)"/><path class="cls-1" d="M288.2,285.4h10v37h-10Z" transform="translate(-30.2 -21.4851)"/><path class="cls-1" d="M169,310.9H154.2c1.1,3.4,3.6,3.9,6.1,4a70.1418,70.1418,0,0,0,7.7-.6v4.5a19.894,19.894,0,0,1-13.4-.1c-5.1-1.7-7.4-7.1-6.2-13.8.9-5.1,4.2-7.6,9.6-8C166.2,296.3,170.7,301.4,169,310.9Zm-5.7-5c0-3.2-2.1-4-4.5-4.1-2.6-.1-4.2,1.2-4.3,4.1Z" transform="translate(-30.2 -21.4851)"/><path class="cls-1" d="M132.6,310.7H117.5c3.6,6.2,9,3.8,13.8,3.6v4.5a20.2169,20.2169,0,0,1-13.3,0c-4.5-1.5-7.2-7.1-6.4-12.4,1-6.4,3.9-9.2,9.8-9.3C130.1,296.8,133.6,300.9,132.6,310.7ZM118,305.9h8.7c.1-2.7-1.3-3.9-3.6-4.1C120.1,301.5,118.3,302.8,118,305.9Z" transform="translate(-30.2 -21.4851)"/><path class="cls-1" d="M76.8,308.5c0,7.7-3.6,11.3-11.3,11.3-7.5,0-11.5-3.9-11.4-11.4,0-7.1,3.9-11.8,11.7-11.4S76.8,300.4,76.8,308.5Zm-6.1-.1c0-4.7-1.6-6.7-5.3-6.7-3.3,0-5.1,2.4-5.2,6.6s2,6.6,5.3,6.6,5.2-2.2,5.2-6.5Z" transform="translate(-30.2 -21.4851)"/><path class="cls-1" d="M147.1,301.4c-5.4,2-5.4,2-5.4,7.8,0,3.1,0,6.2-.1,9.3a3.5521,3.5521,0,0,1-.4.9h-5.4V296.6l5.8,1.8-.3.7,5.7-2.4v4.7Z" transform="translate(-30.2 -21.4851)"/><path class="cls-1" d="M288.1,279.5v-7.9h10v7.9Z" transform="translate(-30.2 -21.4851)"/></g></svg>