<svg xmlns="http://www.w3.org/2000/svg" width="253.946" height="71.852" viewBox="0 0 253.946 71.852">
  <g id="Group_2287" data-name="Group 2287" transform="translate(-802.023 -200.5)">
    <path id="Path_1044" data-name="Path 1044" d="M2136,567.943l29.142-34.771c0,.166,26.36,34.771,26.36,34.771l36.182-16.97c0-.516,39.75-27.41,39.75-27.41,0-.57,15.647,32.925,15.647,32.925.007-.473,28.3,0,28.3,0l23.944-46.841c.061.192,16.437,20.846,16.437,20.846,0,.536,12.971-27.461,12.971-27.461" transform="translate(-1332.178 -297.861)" fill="none" stroke="#ff4967" stroke-width="3"/>
    <path id="Path_1045" data-name="Path 1045" d="M2106,550.913l30.048,19.845c0,.219,44.161-35.446,44.161-35.446,0,.024,28.777,31.4,28.777,31.4,0-.424,52.511-36.652,52.511-36.652,0,.553,54.821,23.681,54.821,23.681.368.424,36.81-18.432,36.81-18.432" transform="translate(-1303.113 -308.036)" fill="none" stroke="#a17cff" stroke-width="3"/>
    <path id="Path_1046" data-name="Path 1046" d="M2106,555.208l46.8-17.06c0-.019,28.672,8.557,28.672,8.557,0,.326,54.821,13.183,54.821,13.183,0,.151,49.939-43.952,49.939-43.952,0-.492,28.879,43.952,28.879,43.952l42.8-53.824" transform="translate(-1303.113 -299.002)" fill="none" stroke="#2daae1" stroke-width="3"/>
    <line id="Line_17" data-name="Line 17" y2="71" transform="translate(802.523 200.5)" fill="none" stroke="#8895cb" stroke-width="1"/>
    <line id="Line_18" data-name="Line 18" x1="251.978" transform="translate(802.522 271.852)" fill="none" stroke="#8895cb" stroke-width="1"/>
  </g>
</svg>
