<svg id="Group_2337" data-name="Group 2337" xmlns="http://www.w3.org/2000/svg" xmlns:xlink="http://www.w3.org/1999/xlink" width="16.109" height="14.554" viewBox="0 0 16.109 14.554">
  <defs>
    <clipPath id="clip-path">
      <rect id="Rectangle_1058" data-name="Rectangle 1058" width="16.109" height="14.554" fill="#3b39c5"/>
    </clipPath>
  </defs>
  <g id="Group_2334" data-name="Group 2334" transform="translate(0 0)" clip-path="url(#clip-path)">
    <path id="Path_5702" data-name="Path 5702" d="M4.291,5.249a8.861,8.861,0,0,0,7.469.02c.371-.163.382-.2.307-.662a9.411,9.411,0,0,1-8.028.007c-.112.4-.08.489.252.635M6.171.013A1.9,1.9,0,0,1,7.231.239,1.579,1.579,0,0,0,8.844.248a1.958,1.958,0,0,1,2.468.47A5.23,5.23,0,0,1,12.451,3.31c.088.482-.027.364.438.483a7.12,7.12,0,0,1,2.356.954,2.816,2.816,0,0,1,.594.548,1.08,1.08,0,0,1-.016,1.449,4.033,4.033,0,0,1-1.026.8,8.855,8.855,0,0,1-3.14.939c-1.2.156-3.633.317-3.637.295A19.829,19.829,0,0,1,2.681,8.1,6.047,6.047,0,0,1,.7,7.181,1.461,1.461,0,0,1,0,6.042a1.1,1.1,0,0,1,.41-.93,5.979,5.979,0,0,1,1.215-.784,15.213,15.213,0,0,1,1.743-.57.285.285,0,0,0,.243-.266A5.606,5.606,0,0,1,4.527,1.03,2.123,2.123,0,0,1,6.171.013" transform="translate(0 0)" fill="#3b39c5"/>
    <path id="Path_5703" data-name="Path 5703" d="M8.82,10.682a3.883,3.883,0,0,0,1.563.8c1.1.283,1.654-.168,1.6-1.293,0-.031,0-.061,0-.091,0-.218-.068-.3-.314-.231-.724.21-1.456.394-2.182.595-.207.057-.408.133-.663.219m-5.258-.9a8.953,8.953,0,0,0,.065,1.044.823.823,0,0,0,.855.743,3.715,3.715,0,0,0,2.277-.89l-3.2-.9M2.049,8.21a1,1,0,0,1,.387.023,25.133,25.133,0,0,0,8.188.4c.906-.1,1.8-.292,2.7-.451.354-.064.507.05.472.407a9.619,9.619,0,0,1-.752,3.123,4.438,4.438,0,0,1-.594.938,1.751,1.751,0,0,1-1.3.643A4.416,4.416,0,0,1,9.4,12.757a3.827,3.827,0,0,0-3.261,0,6.9,6.9,0,0,1-1.621.43A1.554,1.554,0,0,1,2.971,12.5a5.876,5.876,0,0,1-1.007-2.62c-.073-.423-.1-.854-.186-1.273-.054-.262.058-.365.271-.4" transform="translate(0.274 1.267)" fill="#3b39c5"/>
  </g>
</svg>
