<svg xmlns="http://www.w3.org/2000/svg" width="39.398" height="29.032" viewBox="0 0 39.398 29.032">
  <path id="Path_5574" data-name="Path 5574" d="M38.821,27.878H38.36V27.3a1.464,1.464,0,0,0-1.06-1.4V7.156a.963.963,0,0,0-.962-.962H35.32a.577.577,0,0,0,0,1.154h.825V9.327H13.184V7.349h19.4a.577.577,0,0,0,0-1.154h-1.8V5.182h2.144a.963.963,0,0,0,.962-.962V.962A.963.963,0,0,0,32.931,0h-17a.963.963,0,0,0-.962.962V4.22a.963.963,0,0,0,.962.962h2.144V6.195H13.184V3.556a.963.963,0,0,0-.962-.962H2.86a.963.963,0,0,0-.962.962v6.766a.577.577,0,1,0,1.154,0V3.748h8.977V27.834H11.2V27.3a1.459,1.459,0,0,0-2.347-1.161,1.452,1.452,0,0,0-1.77,0,1.452,1.452,0,0,0-1.77,0,1.452,1.452,0,0,0-1.77,0,1.469,1.469,0,0,0-.487-.244V13.054a.577.577,0,1,0-1.154,0V26.046A1.46,1.46,0,0,0,1.193,27.3v.583H.577a.577.577,0,0,0,0,1.154H38.821a.577.577,0,1,0,0-1.154ZM29.633,6.194H19.227V5.182H29.633ZM16.121,4.028V1.154H32.739V4.028ZM2.963,27.878H2.347V27.3a.308.308,0,0,1,.616,0Zm1.77,0H4.117V27.3a.308.308,0,0,1,.616,0Zm1.77,0H5.887V27.3a.308.308,0,0,1,.616,0Zm1.77,0H7.657V27.3a.308.308,0,0,1,.616,0Zm1.77,0H9.426V27.3a.308.308,0,1,1,.616,0ZM31.8,10.481h1.585v3.543H31.8Zm0,4.7h1.585v3.542H31.8Zm0,4.7h1.585v3.542H31.8Zm-2.739-9.4h1.585v3.543H29.057Zm0,4.7h1.585v3.542H29.057Zm0,4.7h1.585v3.542H29.057Zm-2.739-9.4H27.9v3.543H26.318Zm0,8.142V15.178H27.9v3.542H26.318Zm0,1.253H27.9v3.542H26.318Zm-5.478-9.4h1.585v3.543H20.84Zm0,4.7h1.585V17.66H20.84Zm-2.739-4.7h1.585v3.543H18.1Zm0,4.7h1.585V17.66H18.1Zm-2.739-4.7h1.585v3.543H15.362Zm0,4.7h1.585V17.66H15.362Zm-2.178-4.7h1.024v3.543H13.184Zm0,4.7h1.024V17.66H13.184Zm.552,12.655h-.552V20.77h.552Zm4.655.044h-3.5V20.77h3.5Zm4.817,0H19.545V20.77h3.663Zm1.955-3.883v3.839h-.8V20.77h.8Zm0-4.7v.318H13.184v-.8h11.98Zm0-1.637H23.579V15.178h1.585Zm0-3.637H23.579V10.481h1.585Zm4.962,13.855H29.51V27.3a.308.308,0,0,1,.616,0Zm1.77,0H31.28V27.3a.308.308,0,0,1,.616,0Zm1.77,0H33.05V27.3a.308.308,0,0,1,.616,0Zm1.77,0H34.82V27.3a.308.308,0,1,1,.616,0Zm.709-1.833a1.449,1.449,0,0,0-.132.089,1.452,1.452,0,0,0-1.77,0,1.452,1.452,0,0,0-1.77,0,1.452,1.452,0,0,0-1.77,0A1.459,1.459,0,0,0,28.356,27.3v.583H26.318V24.573h9.827Zm0-2.627H34.536V19.876h1.609Zm0-4.7H34.536V15.178h1.609Zm0-4.7H34.536V10.481h1.609Zm1.06,13.855H36.59V27.3a.308.308,0,1,1,.616,0Zm0,0" fill="#0033a0"/>
</svg>
