<svg xmlns="http://www.w3.org/2000/svg" width="31.564" height="31.563" viewBox="0 0 31.564 31.563">
  <g id="Page-1" transform="translate(0 -0.001)">
    <g id="_001---Degree" data-name="001---Degree" transform="translate(0 0.001)">
      <path id="Shape" d="M30.868,5.323,16.143.063a1.079,1.079,0,0,0-.719,0L.7,5.323A1.052,1.052,0,0,0,.7,7.3L7.895,9.872v3.28c0,2.045,7.083,2.1,7.891,2.1s7.891-.059,7.891-2.1V9.872l1.578-.56v1.21a1.052,1.052,0,0,0,1.052,1.052h1.052a1.052,1.052,0,0,0,1.052-1.052V8.944a1.556,1.556,0,0,0-.171-.7L30.87,7.3a1.052,1.052,0,0,0,0-1.98Zm-8.243,6.672c-2-.912-6.226-.947-6.839-.947s-4.835.035-6.839.947V7.412c.316-.405,2.8-1.1,6.839-1.1s6.523.693,6.839,1.1ZM15.786,14.2c-3.893,0-6.338-.643-6.795-1.052.457-.409,2.9-1.052,6.795-1.052s6.338.643,6.795,1.052C22.123,13.561,19.679,14.2,15.786,14.2ZM25.5,8.1l-1.825.651V7.365c0-2.045-7.083-2.1-7.891-2.1s-7.891.059-7.891,2.1V8.755L1.056,6.313,15.793,1.053,26.307,4.81V7.462A1.581,1.581,0,0,0,25.5,8.1Zm1.858,2.417H26.307V8.944a.526.526,0,1,1,1.052,0Zm0-3.081V5.186l3.156,1.127Z" transform="translate(-0.004 -0.001)" fill="#0033a0"/>
      <path id="Shape-2" data-name="Shape" d="M29.986,31a.514.514,0,0,0-.094.008,88.084,88.084,0,0,1-14.11,1.044,88.085,88.085,0,0,1-14.11-1.044A.593.593,0,0,0,1.578,31C1.21,31,0,31.417,0,36.787s1.21,5.787,1.578,5.787a.6.6,0,0,0,.094-.009,82.278,82.278,0,0,1,10.837-.988l-1.027,2.463a1.048,1.048,0,0,0,1.39,1.35l.4-.172.174.4a1.046,1.046,0,0,0,.967.638h.013a1.048,1.048,0,0,0,.964-.657l.914-2.187.911,2.179a1.052,1.052,0,0,0,.967.665H18.2a1.045,1.045,0,0,0,.964-.631l.176-.4.4.17a1.048,1.048,0,0,0,1.394-1.357L20.124,41.62a80.211,80.211,0,0,1,9.77.947.513.513,0,0,0,.092.007c.368,0,1.578-.417,1.578-5.787S30.354,31,29.986,31Zm-12.52,2.088a11.079,11.079,0,0,1,.379,2.46,3.65,3.65,0,0,0-3.662.34,14.212,14.212,0,0,0-.361-2.8q.956.02,1.961.02C16.357,33.1,16.915,33.1,17.465,33.088Zm-1.157,8.433a2.63,2.63,0,1,1,2.63-2.63A2.63,2.63,0,0,1,16.308,41.521ZM1.578,32.315A14.755,14.755,0,0,1,2.1,36.787a14.755,14.755,0,0,1-.526,4.472,14.755,14.755,0,0,1-.526-4.472A14.755,14.755,0,0,1,1.578,32.315Zm1.063,9.033a14.691,14.691,0,0,0,.516-4.561,14.683,14.683,0,0,0-.516-4.562,92.3,92.3,0,0,0,10.082.833,13.542,13.542,0,0,1,.429,3.729c0,.076,0,.149,0,.222a3.645,3.645,0,0,0-.169,3.447l-.023.056a91.621,91.621,0,0,0-10.315.837ZM14.418,45.2l-.384-.884a.526.526,0,0,0-.69-.274l-.885.391,1.234-2.958A3.679,3.679,0,0,0,15.551,42.5Zm4.854-1.157a.526.526,0,0,0-.69.274l-.389.875-1.128-2.7a3.682,3.682,0,0,0,1.86-1.016l1.231,2.946ZM29.881,41.5a85.2,85.2,0,0,0-10.206-.947l-.037-.09a3.661,3.661,0,0,0-.709-4.149,14.642,14.642,0,0,0-.376-3.241,87.811,87.811,0,0,0,11.328-.99,12.409,12.409,0,0,1,.631,4.709A12.464,12.464,0,0,1,29.881,41.5Z" transform="translate(0 -14.692)" fill="#0033a0"/>
    </g>
  </g>
</svg>
