<svg id="settings_1_" data-name="settings (1)" xmlns="http://www.w3.org/2000/svg" width="26.546" height="26.545" viewBox="0 0 26.546 26.545">
  <g id="Group_2062" data-name="Group 2062" transform="translate(0 0)">
    <path id="Path_5515" data-name="Path 5515" d="M25.187,10.487l-1.863-.316a10.521,10.521,0,0,0-.749-1.808l1.1-1.536A1.635,1.635,0,0,0,23.5,4.715L21.843,3.062a1.628,1.628,0,0,0-1.159-.482,1.611,1.611,0,0,0-.948.3l-1.542,1.1a10.411,10.411,0,0,0-1.874-.771l-.311-1.841A1.638,1.638,0,0,0,14.39,0H12.056a1.638,1.638,0,0,0-1.619,1.37l-.322,1.885a10.262,10.262,0,0,0-1.8.76l-1.525-1.1A1.638,1.638,0,0,0,4.675,3.1L3.017,4.748a1.642,1.642,0,0,0-.177,2.113L3.948,8.419a10.276,10.276,0,0,0-.738,1.813l-1.841.311A1.638,1.638,0,0,0,0,12.162V14.5a1.638,1.638,0,0,0,1.37,1.619l1.885.322a10.261,10.261,0,0,0,.76,1.8L2.922,19.759A1.635,1.635,0,0,0,3.1,21.872l1.653,1.653a1.628,1.628,0,0,0,1.159.482,1.611,1.611,0,0,0,.948-.3l1.558-1.109a10.491,10.491,0,0,0,1.752.721l.311,1.863a1.638,1.638,0,0,0,1.619,1.37h2.34a1.638,1.638,0,0,0,1.619-1.37l.316-1.863a10.521,10.521,0,0,0,1.808-.749l1.536,1.1a1.628,1.628,0,0,0,.954.3h0a1.628,1.628,0,0,0,1.159-.482l1.653-1.653a1.642,1.642,0,0,0,.177-2.113l-1.1-1.542a10.445,10.445,0,0,0,.749-1.808l1.863-.311a1.638,1.638,0,0,0,1.37-1.619V12.106A1.618,1.618,0,0,0,25.187,10.487Zm-.128,3.954a.144.144,0,0,1-.122.144l-2.329.388a.744.744,0,0,0-.6.549,8.877,8.877,0,0,1-.965,2.323.75.75,0,0,0,.033.815l1.37,1.93a.151.151,0,0,1-.017.189l-1.653,1.653a.141.141,0,0,1-.105.044.136.136,0,0,1-.083-.028l-1.924-1.37a.749.749,0,0,0-.815-.033,8.877,8.877,0,0,1-2.323.965.736.736,0,0,0-.549.6l-.394,2.329a.144.144,0,0,1-.144.122H12.105a.144.144,0,0,1-.144-.122l-.388-2.329a.744.744,0,0,0-.549-.6,9.218,9.218,0,0,1-2.274-.932.768.768,0,0,0-.377-.1.73.73,0,0,0-.433.139L6,22.5a.165.165,0,0,1-.083.028.149.149,0,0,1-.105-.044L4.159,20.829a.15.15,0,0,1-.017-.189l1.364-1.913a.759.759,0,0,0,.033-.821,8.794,8.794,0,0,1-.976-2.318.759.759,0,0,0-.6-.549l-2.346-.4A.144.144,0,0,1,1.5,14.5V12.162a.144.144,0,0,1,.122-.144l2.312-.388a.75.75,0,0,0,.6-.555,8.868,8.868,0,0,1,.948-2.329.74.74,0,0,0-.039-.81L4.065,6a.151.151,0,0,1,.017-.189L5.734,4.154a.141.141,0,0,1,.105-.044.136.136,0,0,1,.083.028L7.836,5.5a.759.759,0,0,0,.821.033,8.793,8.793,0,0,1,2.318-.976.759.759,0,0,0,.549-.6l.4-2.346a.144.144,0,0,1,.144-.122H14.4a.144.144,0,0,1,.144.122l.388,2.312a.75.75,0,0,0,.555.6,9,9,0,0,1,2.379.976.75.75,0,0,0,.815-.033L20.6,4.1a.165.165,0,0,1,.083-.028.149.149,0,0,1,.105.044l1.653,1.653a.15.15,0,0,1,.017.189l-1.37,1.924a.749.749,0,0,0-.033.815,8.877,8.877,0,0,1,.965,2.323.736.736,0,0,0,.6.549l2.329.394a.144.144,0,0,1,.122.144v2.335Z" transform="translate(0 -0.001)" fill="#fff"/>
    <path id="Path_5516" data-name="Path 5516" d="M141.828,136a5.728,5.728,0,1,0,5.728,5.728A5.732,5.732,0,0,0,141.828,136Zm0,9.959a4.231,4.231,0,1,1,4.231-4.231A4.234,4.234,0,0,1,141.828,145.96Z" transform="translate(-128.553 -128.459)" fill="#fff"/>
  </g>
</svg>
