<svg xmlns="http://www.w3.org/2000/svg" width="32.58" height="27.479" viewBox="0 0 32.58 27.479">
  <g id="online-shop" transform="translate(0 -40.081)">
    <g id="Group_2138" data-name="Group 2138" transform="translate(0 40.081)">
      <g id="Group_2137" data-name="Group 2137">
        <path id="Path_5649" data-name="Path 5649" d="M30.572,40.081H2.008A2.01,2.01,0,0,0,0,42.088V61.472a2.01,2.01,0,0,0,2.008,2.007h9.661l-.391,3.126H9.659a.477.477,0,0,0,0,.954H22.921a.477.477,0,0,0,0-.954H21.3l-.391-3.126h9.661a2.01,2.01,0,0,0,2.008-2.007V42.088A2.01,2.01,0,0,0,30.572,40.081ZM12.24,66.605l.391-3.126h1.756l.172.689a1.784,1.784,0,0,0,3.461,0l.172-.689h1.756l.391,3.126Zm3.131-3.126h1.838l-.114.458a.829.829,0,0,1-1.609,0Zm16.254-2.007h0a1.054,1.054,0,0,1-1.053,1.053H2.008A1.054,1.054,0,0,1,.954,61.472V42.088a1.054,1.054,0,0,1,1.053-1.053H30.572a1.054,1.054,0,0,1,1.053,1.053V61.472Z" transform="translate(0 -40.081)" fill="#fff"/>
      </g>
    </g>
    <g id="Group_2140" data-name="Group 2140" transform="translate(2.04 42.121)">
      <g id="Group_2139" data-name="Group 2139">
        <path id="Path_5650" data-name="Path 5650" d="M57.025,72.146H32.541a.477.477,0,0,0-.477.477V90.986a.477.477,0,0,0,.477.477h1.02a.477.477,0,0,0,0-.954h-.543V73.1H57.025a.477.477,0,1,0,0-.954Z" transform="translate(-32.064 -72.146)" fill="#fff"/>
      </g>
    </g>
    <g id="Group_2142" data-name="Group 2142" transform="translate(5.101 42.121)">
      <g id="Group_2141" data-name="Group 2141">
        <path id="Path_5651" data-name="Path 5651" d="M105.123,72.146H104.1a.477.477,0,1,0,0,.954h.543V90.509H80.639a.477.477,0,0,0,0,.954h24.484a.477.477,0,0,0,.477-.477V72.623A.477.477,0,0,0,105.123,72.146Z" transform="translate(-80.162 -72.146)" fill="#fff"/>
      </g>
    </g>
    <g id="Group_2144" data-name="Group 2144" transform="translate(8.672 45.182)">
      <g id="Group_2143" data-name="Group 2143">
        <path id="Path_5652" data-name="Path 5652" d="M150.391,122.464a.477.477,0,0,0-.354-.183l-11.222-.51h-.026a.989.989,0,0,0-.4-.534l-1.374-.916a.477.477,0,0,0-.529.794l1.374.916a.033.033,0,0,1,.013.018l1.75,6.127a1.5,1.5,0,0,0,.26.511l-.64,1.281a.981.981,0,0,0,.043.961.991.991,0,0,0,.245.269,1.5,1.5,0,1,0,2.7.2h4.351a1.5,1.5,0,1,0,2.735-.124.477.477,0,0,0-.32-.831h-8.866a.033.033,0,0,1-.029-.048l.59-1.18a1.5,1.5,0,0,0,.373.048,1.535,1.535,0,0,0,.178-.01l6.706-.789a2,2,0,0,0,1.734-1.6l.8-4.011A.477.477,0,0,0,150.391,122.464Zm-2.416,8.933a.543.543,0,1,1-.543.543A.544.544,0,0,1,147.975,131.4Zm-7.141,0a.543.543,0,1,1-.543.543A.544.544,0,0,1,140.834,131.4Zm-1.17-6.565-.6-2.093,1.908.087.331,2.006Zm1.466,3.472a.541.541,0,0,1-.585-.39l-.608-2.128h1.525l.4,2.432Zm2.8-.329-1.116.131-.383-2.32h1.5Zm0-3.143h-1.656l-.324-1.962,1.979.09Zm2.417,2.859-1.462.172v-2.077h1.635Zm.259-2.859h-1.721V123l1.879.085Zm2.142,1.844a1.05,1.05,0,0,1-.909.839l-.523.062.162-1.791h1.448Zm.369-1.844h-1.553l.154-1.7,1.723.078Z" transform="translate(-136.276 -120.241)" fill="#fff"/>
      </g>
    </g>
  </g>
</svg>
