<svg xmlns="http://www.w3.org/2000/svg" width="26.71" height="26.71" viewBox="0 0 26.71 26.71">
  <g id="Group_2136" data-name="Group 2136" transform="translate(-72 -616.176)">
    <path id="Path_5642" data-name="Path 5642" d="M30.873,10.8a.393.393,0,0,0,.393-.393V8.775a.393.393,0,0,0-.393-.393h-4.83V6.974h.591a.393.393,0,0,0,.393-.393V4.95a.393.393,0,0,0-.393-.393H9.191A.393.393,0,0,0,8.8,4.95v1.63a.393.393,0,0,0,.393.393h.591V8.382H4.95a.393.393,0,0,0-.393.393v1.63a.393.393,0,0,0,.393.393h.591V28.85H4.95a.393.393,0,0,0-.393.393v1.63a.393.393,0,0,0,.393.393H30.873a.393.393,0,0,0,.393-.393v-1.63a.393.393,0,0,0-.393-.393h-.591V10.8Zm-.393-1.63v.844H26.042V9.168ZM18.3,28.849V21.983h2.41V28.85Zm-3.2,0V21.983h2.41V28.85Zm6-7.654H14.716a.393.393,0,0,0-.393.393v7.261H13.85l-.868-2.417V18.3h9.86v8.128l-.868,2.417H21.5V21.589a.393.393,0,0,0-.393-.393Zm-10.656,5.7h1.861l.7,1.955H9.749Zm13.06,0h1.861l.7,1.955H22.81ZM9.584,5.343H26.24v.844H9.584Zm15.672,1.63V26.108H23.628v-8.2a.393.393,0,0,0-.393-.393H12.589a.393.393,0,0,0-.393.393v8.2H10.568V6.974ZM5.343,9.168H9.782v.844H5.343Zm.984,1.63H9.782V26.433L8.914,28.85H6.327ZM30.48,30.479H5.343v-.844H30.48Zm-.984-1.63H26.91l-.868-2.417V10.8H29.5Z" transform="translate(67.443 611.619)" fill="#fff"/>
    <path id="Path_5643" data-name="Path 5643" d="M56.668,44.387h2.685a.393.393,0,0,0,.393-.393V41.309a.393.393,0,0,0-.393-.393H56.668a.393.393,0,0,0-.393.393v2.684A.393.393,0,0,0,56.668,44.387Zm.393-2.684h1.9v1.9h-1.9Z" transform="translate(27.344 583.429)" fill="#fff"/>
    <path id="Path_5644" data-name="Path 5644" d="M36.961,44.387h2.685a.393.393,0,0,0,.393-.393V41.309a.393.393,0,0,0-.393-.393H36.961a.393.393,0,0,0-.393.393v2.684a.393.393,0,0,0,.393.393Zm.393-2.684h1.9v1.9h-1.9Z" transform="translate(42.624 583.429)" fill="#fff"/>
    <path id="Path_5645" data-name="Path 5645" d="M76.376,44.387h2.685a.393.393,0,0,0,.393-.393V41.309a.393.393,0,0,0-.393-.393H76.376a.393.393,0,0,0-.393.393v2.684A.393.393,0,0,0,76.376,44.387Zm.393-2.684h1.9v1.9h-1.9Z" transform="translate(12.064 583.429)" fill="#fff"/>
    <path id="Path_5646" data-name="Path 5646" d="M56.668,24.671h2.685a.393.393,0,0,0,.393-.393V21.593a.393.393,0,0,0-.393-.393H56.668a.393.393,0,0,0-.393.393v2.685A.393.393,0,0,0,56.668,24.671Zm.393-2.685h1.9v1.9h-1.9Z" transform="translate(27.344 598.716)" fill="#fff"/>
    <path id="Path_5647" data-name="Path 5647" d="M36.961,24.671h2.685a.393.393,0,0,0,.393-.393V21.593a.393.393,0,0,0-.393-.393H36.961a.393.393,0,0,0-.393.393v2.685A.393.393,0,0,0,36.961,24.671Zm.393-2.685h1.9v1.9h-1.9Z" transform="translate(42.624 598.716)" fill="#fff"/>
    <path id="Path_5648" data-name="Path 5648" d="M76.376,24.671h2.685a.393.393,0,0,0,.393-.393V21.593a.393.393,0,0,0-.393-.393H76.376a.393.393,0,0,0-.393.393v2.685A.393.393,0,0,0,76.376,24.671Zm.393-2.685h1.9v1.9h-1.9Z" transform="translate(12.064 598.716)" fill="#fff"/>
  </g>
</svg>
